<mxfile host="app.diagrams.net" modified="2022-08-09T09:35:56.712Z" agent="5.0 (Windows)" etag="i87NipcsPyJanGOKPceY" version="20.2.3" type="github">
  <diagram id="sMP_dOJLOKyjLoVJ6SQn" name="Page-1">
    <mxGraphModel dx="593" dy="322" grid="1" gridSize="10" guides="1" tooltips="1" connect="1" arrows="1" fold="1" page="1" pageScale="1" pageWidth="827" pageHeight="1169" math="0" shadow="0">
      <root>
        <mxCell id="0" />
        <mxCell id="1" parent="0" />
        <mxCell id="vuxg8Bi198hUJe4XiMdr-18" value="" style="edgeStyle=orthogonalEdgeStyle;rounded=0;orthogonalLoop=1;jettySize=auto;html=1;" parent="1" source="vuxg8Bi198hUJe4XiMdr-7" target="vuxg8Bi198hUJe4XiMdr-15" edge="1">
          <mxGeometry relative="1" as="geometry" />
        </mxCell>
        <mxCell id="vuxg8Bi198hUJe4XiMdr-7" value="" style="shape=partialRectangle;whiteSpace=wrap;html=1;top=0;left=0;fillColor=none;direction=east;flipH=0;flipV=1;" parent="1" vertex="1">
          <mxGeometry x="474" y="200" width="120" height="60" as="geometry" />
        </mxCell>
        <mxCell id="vuxg8Bi198hUJe4XiMdr-1" value="&lt;div&gt;Barre de recherche principale&lt;/div&gt;" style="rounded=0;whiteSpace=wrap;html=1;direction=west;fillColor=#dae8fc;strokeColor=#6c8ebf;" parent="1" vertex="1">
          <mxGeometry x="354" y="40" width="120" height="60" as="geometry" />
        </mxCell>
        <mxCell id="vuxg8Bi198hUJe4XiMdr-2" value="" style="endArrow=classic;html=1;rounded=0;" parent="1" edge="1">
          <mxGeometry width="50" height="50" relative="1" as="geometry">
            <mxPoint x="413" y="100" as="sourcePoint" />
            <mxPoint x="413" y="150" as="targetPoint" />
          </mxGeometry>
        </mxCell>
        <mxCell id="vuxg8Bi198hUJe4XiMdr-3" value="&lt;div&gt;Valeur d&#39;input : 3 caractères&lt;/div&gt;" style="ellipse;whiteSpace=wrap;html=1;fillColor=#fff2cc;strokeColor=#d6b656;" parent="1" vertex="1">
          <mxGeometry x="354" y="150" width="120" height="80" as="geometry" />
        </mxCell>
        <mxCell id="vuxg8Bi198hUJe4XiMdr-5" value="" style="shape=partialRectangle;whiteSpace=wrap;html=1;bottom=0;right=0;fillColor=none;" parent="1" vertex="1">
          <mxGeometry x="240" y="200" width="120" height="60" as="geometry" />
        </mxCell>
        <mxCell id="vuxg8Bi198hUJe4XiMdr-14" value="ça matche avec les recettes" style="rounded=0;whiteSpace=wrap;html=1;fillColor=#d5e8d4;strokeColor=#82b366;" parent="1" vertex="1">
          <mxGeometry x="180" y="260" width="120" height="60" as="geometry" />
        </mxCell>
        <mxCell id="vuxg8Bi198hUJe4XiMdr-15" value="&lt;div&gt;ça ne matche pas&lt;/div&gt;&lt;div&gt;&lt;br&gt;&lt;/div&gt;" style="rounded=0;whiteSpace=wrap;html=1;fillColor=#f8cecc;strokeColor=#b85450;" parent="1" vertex="1">
          <mxGeometry x="530" y="260" width="120" height="60" as="geometry" />
        </mxCell>
        <mxCell id="vuxg8Bi198hUJe4XiMdr-16" value="" style="endArrow=classic;html=1;rounded=0;entryX=0;entryY=1;entryDx=0;entryDy=0;" parent="1" target="vuxg8Bi198hUJe4XiMdr-5" edge="1">
          <mxGeometry width="50" height="50" relative="1" as="geometry">
            <mxPoint x="240" y="200" as="sourcePoint" />
            <mxPoint x="290" y="150" as="targetPoint" />
          </mxGeometry>
        </mxCell>
        <mxCell id="vuxg8Bi198hUJe4XiMdr-17" value="" style="endArrow=classic;html=1;rounded=0;entryX=0.532;entryY=-0.014;entryDx=0;entryDy=0;entryPerimeter=0;" parent="1" target="vuxg8Bi198hUJe4XiMdr-15" edge="1">
          <mxGeometry width="50" height="50" relative="1" as="geometry">
            <mxPoint x="594" y="200" as="sourcePoint" />
            <mxPoint x="594" y="250" as="targetPoint" />
          </mxGeometry>
        </mxCell>
        <mxCell id="vuxg8Bi198hUJe4XiMdr-19" value="" style="endArrow=classic;html=1;rounded=0;" parent="1" edge="1">
          <mxGeometry width="50" height="50" relative="1" as="geometry">
            <mxPoint x="594" y="320" as="sourcePoint" />
            <mxPoint x="594" y="360" as="targetPoint" />
          </mxGeometry>
        </mxCell>
        <mxCell id="vuxg8Bi198hUJe4XiMdr-21" value="" style="endArrow=classic;html=1;rounded=0;" parent="1" edge="1">
          <mxGeometry width="50" height="50" relative="1" as="geometry">
            <mxPoint x="240" y="320" as="sourcePoint" />
            <mxPoint x="240" y="360" as="targetPoint" />
          </mxGeometry>
        </mxCell>
        <mxCell id="vuxg8Bi198hUJe4XiMdr-26" style="edgeStyle=orthogonalEdgeStyle;rounded=0;orthogonalLoop=1;jettySize=auto;html=1;" parent="1" source="vuxg8Bi198hUJe4XiMdr-22" edge="1">
          <mxGeometry relative="1" as="geometry">
            <mxPoint x="240" y="520" as="targetPoint" />
          </mxGeometry>
        </mxCell>
        <mxCell id="vuxg8Bi198hUJe4XiMdr-22" value="&lt;div&gt;grâce à la méthode filter(), je retourne une valeur selectedRecipes. Ce sont les recettes qui comprennent la valeur d&#39;input dans le nom, la description, les ingrédients&lt;/div&gt;" style="rounded=0;whiteSpace=wrap;html=1;fillColor=#e1d5e7;strokeColor=#9673a6;" parent="1" vertex="1">
          <mxGeometry x="180" y="360" width="120" height="140" as="geometry" />
        </mxCell>
        <mxCell id="vuxg8Bi198hUJe4XiMdr-23" value="&lt;div&gt;Message : recherche infructueuse&lt;/div&gt;&lt;div&gt;&lt;br&gt;&lt;/div&gt;" style="whiteSpace=wrap;html=1;aspect=fixed;fillColor=#fff2cc;strokeColor=#d6b656;" parent="1" vertex="1">
          <mxGeometry x="550" y="360" width="90" height="90" as="geometry" />
        </mxCell>
        <mxCell id="w09Ltb3zem8yMkZ8JGtS-3" style="edgeStyle=orthogonalEdgeStyle;rounded=0;orthogonalLoop=1;jettySize=auto;html=1;" edge="1" parent="1" source="vuxg8Bi198hUJe4XiMdr-27">
          <mxGeometry relative="1" as="geometry">
            <mxPoint x="240" y="680" as="targetPoint" />
          </mxGeometry>
        </mxCell>
        <mxCell id="vuxg8Bi198hUJe4XiMdr-27" value="&lt;div&gt;Mon tableau de recettes sélectionnées prend une nouvelle valeur : celle renvoyée par ma méthode &quot;filter&quot;&lt;/div&gt;" style="rounded=0;whiteSpace=wrap;html=1;fillColor=#e1d5e7;strokeColor=#9673a6;" parent="1" vertex="1">
          <mxGeometry x="180" y="520" width="120" height="120" as="geometry" />
        </mxCell>
        <mxCell id="w09Ltb3zem8yMkZ8JGtS-2" style="edgeStyle=orthogonalEdgeStyle;rounded=0;orthogonalLoop=1;jettySize=auto;html=1;" edge="1" parent="1" source="w09Ltb3zem8yMkZ8JGtS-1">
          <mxGeometry relative="1" as="geometry">
            <mxPoint x="240" y="200" as="targetPoint" />
          </mxGeometry>
        </mxCell>
        <mxCell id="w09Ltb3zem8yMkZ8JGtS-1" value="&lt;div&gt;Tableau de recettes sélectionnées : correspond par défaut à toutes les recettes&lt;/div&gt;" style="rounded=0;whiteSpace=wrap;html=1;fillColor=#dae8fc;strokeColor=#6c8ebf;" vertex="1" parent="1">
          <mxGeometry x="180" y="90" width="120" height="60" as="geometry" />
        </mxCell>
        <mxCell id="w09Ltb3zem8yMkZ8JGtS-4" value="Affichage de mes recettes avec mon tableau filtré comme argument" style="rounded=0;whiteSpace=wrap;html=1;fillColor=#e1d5e7;strokeColor=#9673a6;" vertex="1" parent="1">
          <mxGeometry x="180" y="680" width="120" height="60" as="geometry" />
        </mxCell>
      </root>
    </mxGraphModel>
  </diagram>
</mxfile>
